<?xml version="1.0" encoding="UTF-8" standalone="no"?>
<!-- Created with Inkscape (http://www.inkscape.org/) -->

<svg
   xmlns:dc="http://purl.org/dc/elements/1.1/"
   xmlns:cc="http://creativecommons.org/ns#"
   xmlns:rdf="http://www.w3.org/1999/02/22-rdf-syntax-ns#"
   xmlns:svg="http://www.w3.org/2000/svg"
   xmlns="http://www.w3.org/2000/svg"
   xmlns:sodipodi="http://sodipodi.sourceforge.net/DTD/sodipodi-0.dtd"
   xmlns:inkscape="http://www.inkscape.org/namespaces/inkscape"
   width="210mm"
   height="297mm"
   id="svg2"
   version="1.1"
   inkscape:version="0.47 r22583"
   sodipodi:docname="fiura_stencil.svg">
  <defs
     id="defs4">
    <inkscape:perspective
       sodipodi:type="inkscape:persp3d"
       inkscape:vp_x="0 : 526.18109 : 1"
       inkscape:vp_y="0 : 1000 : 0"
       inkscape:vp_z="744.09448 : 526.18109 : 1"
       inkscape:persp3d-origin="372.04724 : 350.78739 : 1"
       id="perspective10" />
    <inkscape:perspective
       id="perspective2824"
       inkscape:persp3d-origin="0.5 : 0.33333333 : 1"
       inkscape:vp_z="1 : 0.5 : 1"
       inkscape:vp_y="0 : 1000 : 0"
       inkscape:vp_x="0 : 0.5 : 1"
       sodipodi:type="inkscape:persp3d" />
  </defs>
  <sodipodi:namedview
     id="base"
     pagecolor="#ffffff"
     bordercolor="#666666"
     borderopacity="1.0"
     inkscape:pageopacity="0.0"
     inkscape:pageshadow="2"
     inkscape:zoom="0.7"
     inkscape:cx="977.86123"
     inkscape:cy="444.71187"
     inkscape:document-units="px"
     inkscape:current-layer="layer1"
     showgrid="false"
     inkscape:window-width="1600"
     inkscape:window-height="851"
     inkscape:window-x="0"
     inkscape:window-y="24"
     inkscape:window-maximized="1" />
  <metadata
     id="metadata7">
    <rdf:RDF>
      <cc:Work
         rdf:about="">
        <dc:format>image/svg+xml</dc:format>
        <dc:type
           rdf:resource="http://purl.org/dc/dcmitype/StillImage" />
        <dc:title></dc:title>
      </cc:Work>
    </rdf:RDF>
  </metadata>
  <g
     inkscape:label="Capa 1"
     inkscape:groupmode="layer"
     id="layer1">
    <path
       style="fill:#000000"
       d="m 37.285738,654.69668 c 0,-0.52317 0.71266,-3.56067 1.58369,-6.75 9.042747,-50.77735 28.382909,-92.78438 57.804709,-134.93975 1.16903,-3.6961 11.209213,-7.03724 27.111603,-9.02211 5.50761,-0.68744 5.71277,-0.79731 2.5,-1.33886 -1.925,-0.32449 0.84327,-0.5693 6.15171,-0.54402 5.30845,0.0253 9.46903,0.34357 9.24575,0.70733 -0.22328,0.36377 1.42628,0.97094 3.66567,1.34929 2.2394,0.37834 4.15861,0.53072 4.26491,0.33861 0.1063,-0.1921 1.06674,-1.385 2.13431,-2.65089 l 1.94104,-2.30161 -2.9517,-2.37095 -2.95169,-2.37095 3.5,-3.6418 c 3.50937,-3.65155 4.01617,-3.75433 9.75,-1.97718 1.94244,0.60204 2.25,0.3354 2.25,-1.95065 0,-3.26582 2.61726,-4.49094 4.39634,-2.0579 0.71514,0.97801 1.82255,1.45541 2.4609,1.06088 1.77723,-1.09839 5.13495,0.33932 5.20615,2.22916 0.0455,1.20881 0.31804,1.04904 0.96777,-0.56739 1.19783,-2.98003 4.31631,-2.86644 7.21802,0.26292 2.09612,2.26058 3.16649,2.53071 10.65909,2.69006 5.47572,0.11645 8.79411,0.64226 9.68675,1.53489 1.46701,1.46702 4.03284,0.62038 6.26275,-2.06649 0.9431,-1.13637 0.87344,-1.56055 -0.33225,-2.02321 -0.83903,-0.32197 -1.52552,-1.0354 -1.52552,-1.5854 0,-0.55 0.61476,-0.7641 1.36613,-0.47577 0.9193,0.35277 1.32815,-0.20346 1.25,-1.7006 -0.12148,-2.32726 -4.6779,-5.68121 -7.89751,-5.81331 -0.97977,-0.0402 -2.00508,-0.65601 -2.27847,-1.36847 -0.75918,-1.97839 -13.05356,-2.21783 -14.1406,-0.2754 -0.56463,1.00894 -0.8696,0.19065 -0.94079,-2.52432 -0.0939,-3.58104 0.37443,-4.41825 4.31351,-7.71105 3.54213,-2.96098 5.30261,-3.71826 8.87328,-3.81689 2.44995,-0.0677 4.45445,0.24154 4.45445,0.68713 0,0.44559 1.4625,0.57586 3.25,0.28949 4.83561,-0.77471 7.04189,3.48418 7.16035,13.82198 0.0847,7.3874 0.21348,7.82409 2.30827,7.82426 1.58746,1.3e-4 2.0504,-0.43817 1.62731,-1.54071 -0.37553,-0.97864 -0.0926,-1.43475 0.77529,-1.25 1.97148,0.41965 5.95258,-8.52403 6.60406,-14.83625 0.71423,-6.92024 -0.6639,-8.77856 -5.98125,-8.06535 -3.00053,0.40245 -4.3979,0.0341 -6.39824,-1.68649 -2.83142,-2.43549 -4.0421,-8.07709 -2.20768,-10.28744 1.50453,-1.81284 10.88517,-0.63805 12.58009,1.57548 1.04343,1.3627 1.22056,1.37575 1.23468,0.0909 0.0247,-2.24259 -1.58616,-4.34468 -2.76908,-3.61359 -0.57189,0.35345 -1.30496,-0.1514 -1.62905,-1.12189 -0.32408,-0.97049 -2.17184,-3.51898 -4.10614,-5.66331 l -3.5169,-3.89879 -4.07,1.34322 c -2.35375,0.77681 -4.40554,2.21003 -4.8657,3.39879 -0.82526,2.13197 -0.79297,2.16919 -2.39326,-2.75844 -0.33264,-1.02429 -1.35393,-1.68818 -2.34593,-1.52496 -0.96625,0.15898 -2.24123,-0.0155 -2.83328,-0.38775 -1.25883,-0.79147 -5.42354,0.12259 -5.42354,1.19034 0,1.31838 -3.46958,4.53638 -4.89101,4.53638 -1.60433,0 -2.74557,1.83892 -3.56848,5.75 -0.31824,1.5125 -1.169,2.75 -1.89058,2.75 -1.371,0 -2.47739,1.81729 -5.17491,8.5 -2.58901,6.41391 -2.89261,12.04278 -0.97788,18.13023 0.94832,3.01496 1.44192,5.76405 1.09687,6.10909 -1.27631,1.27631 -2.80931,-1.684 -3.56589,-6.88596 -0.65686,-4.51628 -0.79812,-4.77978 -0.90336,-1.68515 -0.2773,8.15333 -3.12476,8.85752 -3.12476,0.77281 0,-4.27431 0.26985,-4.94098 2,-4.94098 1.74135,0 2,-0.66667 2,-5.15499 0,-5.00189 -0.0565,-5.1039 -1.90072,-3.43485 -2.50782,2.26954 -3.94396,0.18068 -1.6321,-2.3739 1.00628,-1.11192 1.26946,-2.08099 0.66638,-2.45371 -0.54819,-0.33881 -1.65854,0.32888 -2.46745,1.48375 -1.45398,2.07586 -1.4773,2.06751 -2.04838,-0.73327 -0.3177,-1.55817 -0.20687,-7.75823 0.2463,-13.77793 l 0.82395,-10.9449 5.08979,-4.68007 c 2.79938,-2.57404 6.25603,-4.97278 7.68144,-5.33054 1.42542,-0.35775 3.44796,-1.42652 4.49455,-2.37503 4.02807,-3.65059 5.03959,-4.22456 7.44502,-4.22456 1.36575,0 2.7288,-0.39741 3.02899,-0.88313 0.57307,-0.92725 9.60613,-2.4509 15.57223,-2.62664 4.50779,-0.13278 8.61849,2.17058 11.13957,6.24188 1.10079,1.77766 3.23877,4.11317 4.75108,5.19003 1.58426,1.12809 3.33366,3.78461 4.12758,6.26789 0.75787,2.37048 1.92603,5.20997 2.59591,6.30997 2.05943,3.38173 2.67886,16.34628 1.05114,22 -1.85257,6.43472 -3.69871,11.6058 -4.81966,13.5 -0.48822,0.825 -1.91899,3.525 -3.17948,6 -3.89629,7.65043 -6.81598,12.00983 -8.72938,13.03385 -1.00936,0.54019 -3.32055,4.11674 -5.13598,7.94789 -1.81543,3.83114 -3.97578,7.17313 -4.80078,7.42663 -0.825,0.25351 -0.39002,0.37783 0.96663,0.27627 1.85735,-0.13903 2.69585,-0.98741 3.39466,-3.43464 1.17209,-4.10469 2.43741,-4.09374 11.16692,0.0966 9.43018,4.52668 12.79791,7.60267 16.06014,14.66886 1.51957,3.29149 3.10169,5.98453 3.51582,5.98453 0.41414,0 1.45922,0.70625 2.32242,1.56945 2.04575,2.04575 0.39474,5.43055 -2.64886,5.43055 -2.07534,0 -2.05629,0.0998 0.53518,2.80472 1.4779,1.54259 2.68709,3.33387 2.68709,3.98061 0,0.64674 2.25,2.85567 5,4.90873 2.75,2.05307 5,4.29181 5,4.97499 0,0.68317 1.04495,2.78196 2.32212,4.66396 l 2.32211,3.42183 2.23999,-4.62742 c 2.37443,-4.90518 9.40643,-11.09743 15.48802,-13.63848 4.16012,-1.73821 5.19315,-3.058 3.04023,-3.88416 -2.4004,-0.92112 -3.08744,-0.69528 -1.41247,0.46429 1.23292,0.85354 1.14389,0.97378 -0.5,0.6753 -1.1,-0.19973 -1.8875,-0.89892 -1.75,-1.55376 0.1375,-0.65483 -0.62344,-1.1906 -1.69098,-1.1906 -1.06754,0 -2.2191,-0.45 -2.55902,-1 -0.33992,-0.55 -1.60398,-1.03553 -2.80902,-1.07895 -1.20504,-0.0434 -1.66193,-0.29477 -1.01531,-0.55856 0.64662,-0.26378 3.12162,0.0756 5.5,0.75413 2.37838,0.67855 4.88174,1.13635 5.56302,1.01732 0.68127,-0.11903 2.08931,0.23883 3.12897,0.79523 1.6544,0.88541 2.15474,0.37529 4.00953,-4.08783 l 2.11925,-5.09947 5.00178,0.66351 c 3.10805,0.41229 5.00178,0.28517 5.00178,-0.33575 0,-1.89469 3.84724,-3.22175 6,-2.06963 1.68639,0.90253 2,0.76049 2,-0.9058 0,-1.08689 0.4518,-2.25539 1.00399,-2.59667 0.59053,-0.36496 -0.0761,-2.03657 -1.61868,-4.05902 l -2.62269,-3.43851 3.15008,0 c 4.06559,0 4.59789,-1.61708 2.14865,-6.52723 -1.47443,-2.95588 -1.99186,-3.42819 -2.0215,-1.84521 -0.0219,1.17015 -0.79074,2.74515 -1.7085,3.5 -1.51362,1.24493 -1.60886,1.07048 -1.025,-1.87756 0.55731,-2.81402 0.37028,-3.25 -1.39421,-3.25 -1.38709,0 -1.94318,0.55884 -1.74138,1.75 0.16306,0.9625 -0.14616,1.975 -0.68715,2.25 -0.54098,0.275 -1.25395,-1.3 -1.58436,-3.5 -0.33041,-2.2 -1.50685,-6.03237 -2.61432,-8.51639 -1.65138,-3.70399 -1.87241,-5.50276 -1.22875,-10 1.39582,-9.75255 10.49356,-27.65653 16.40991,-32.29403 1.84,-1.44223 17.6003,0.0605 19.5983,1.86869 0.9953,0.90071 2.2386,1.37254 2.7628,1.04851 0.9364,-0.57869 4.1728,5.10616 4.1728,7.32953 0,0.62373 0.7615,2.35572 1.6922,3.84887 l 1.6923,2.71482 -2.9423,-2.69695 c -5.049,-4.62811 -9.5433,-5.97206 -15.6543,-4.68113 -2.9083,0.61439 -6.1879,1.57433 -7.2879,2.13319 -2.4506,1.24506 -5.56673,4.40291 -5.39183,5.46409 0.33873,2.05495 -0.31604,3.05449 -2.71749,4.14866 -2.2734,1.03583 -2.52511,1.60367 -1.95514,4.41052 0.35981,1.77189 1.08112,6.82162 1.60293,11.22162 1.12176,9.45913 1.99024,12.21256 5.68983,18.03911 2.5266,3.97921 6.2159,6.4755 10.3137,6.97856 0.8481,0.10412 2.4906,0.69699 3.65,1.3175 1.6947,0.90696 2.2244,0.82522 2.701,-0.41687 0.3261,-0.84978 1.0076,-1.28874 1.5145,-0.97545 0.507,0.31329 1.0737,0.11358 1.2595,-0.4438 0.1858,-0.55737 2.1367,-1.18171 4.3354,-1.38741 2.1987,-0.2057 5.156,-0.6814 6.5718,-1.05711 1.6991,-0.45087 2.9717,-0.20419 3.7434,0.72562 0.9297,1.12033 0.4094,2.38383 -2.5417,6.17172 -4.2555,5.46206 -7.1386,6.93101 -10.841,5.52338 -1.4108,-0.53639 -3.7857,-0.97525 -5.2775,-0.97525 -1.4918,0 -3.6,-0.60786 -4.6849,-1.3508 -1.0849,-0.74295 -3.3225,-1.67801 -4.9725,-2.07792 -1.65,-0.3999 -3.7875,-1.43679 -4.75,-2.30418 -1.6211,-1.46095 -1.75,-1.3906 -1.75,0.95547 0,2.96221 1.8764,4.74899 6.7448,6.42265 2.3423,0.80526 4.3303,0.89654 5.9677,0.27399 1.3504,-0.51343 2.8162,-0.71051 3.2572,-0.43794 0.441,0.27256 2.0784,3.42578 3.6386,7.00715 2.8184,6.46946 2.8628,6.51158 6.868,6.51158 l 4.0312,0 2.9963,10.68232 c 1.6479,5.87528 3.4906,11.14949 4.0949,11.72048 0.6043,0.57098 0.8989,1.80225 0.6547,2.73615 -0.2442,0.9339 0.083,2.52219 0.7268,3.52953 1.0358,1.62031 1.1081,1.62971 0.6267,0.0815 -0.2993,-0.9625 -0.1256,-1.75 0.386,-1.75 0.5115,0 1.4058,-1.9125 1.9872,-4.25 0.5815,-2.3375 1.7097,-6.39539 2.5071,-9.01754 1.7765,-5.84126 0.8593,-8.89355 -4.0361,-13.43148 -2.8404,-2.63288 -3.4511,-3.91587 -3.4511,-7.24998 0,-2.22804 0.4453,-4.05098 0.9895,-4.05098 0.5442,0 3.9405,1.18139 7.5474,2.62531 4.7657,1.90786 7.6381,2.48043 10.5105,2.09516 2.1739,-0.29159 3.9526,-0.12902 3.9526,0.36127 0,0.49028 1.684,1.59503 3.7422,2.45501 2.8171,1.17706 4.312,1.30398 6.0471,0.51342 1.2676,-0.5776 2.5026,-1.05017 2.7443,-1.05017 0.2417,0 3.3237,2.4468 6.849,5.43733 3.5252,2.99052 6.7534,5.12802 7.1737,4.75 0.4204,-0.37803 0.4738,-0.17844 0.1186,0.44355 -0.3551,0.62198 0.7368,2.87198 2.4264,5 4.2164,5.3104 4.2262,5.31435 3.3943,1.36912 -1.0046,-4.76445 -5.1317,-11.62084 -9.4338,-15.67257 -3.5802,-3.37188 -5.5908,-3.6658 -12.111,-1.77047 -1.5091,0.4387 -2.1917,-1.72819 -4.7428,-15.05696 -1.3488,-7.0474 -0.6625,-15.94582 1.5552,-20.16358 3.3066,-6.28851 13.8093,-14.20506 20.9165,-15.76606 7.6142,-1.67236 18.2988,4.28803 20.4284,11.39593 0.9663,3.22534 1.6951,3.9618 4.4277,4.47445 1.7991,0.33752 3.526,1.27792 3.8376,2.08978 0.4722,1.23055 0.1555,1.20689 -1.9035,-0.14221 -1.5616,-1.0232 -2.4699,-1.20041 -2.4699,-0.48188 0,0.62505 1.1474,1.65922 2.5497,2.29817 2.0513,0.93464 2.4911,1.76117 2.25,4.22856 -0.1648,1.68676 -0.8397,3.06684 -1.4997,3.06684 -0.66,0 -1.7625,0.5625 -2.45,1.25 -2.006,2.00597 -3.2333,1.49553 -6.4417,-2.67906 -1.666,-2.16764 -3.5003,-3.62464 -4.0916,-3.25 -1.0607,0.67204 -2.9318,9.17906 -2.0189,9.17906 0.2605,0 1.7303,-0.65197 3.2662,-1.44882 2.8101,-1.45788 4.436,-1.26054 4.436,0.53839 0,0.53434 1.575,2.3544 3.5,4.04457 1.925,1.69018 3.5,3.97457 3.5,5.07644 0,1.36996 0.4743,1.8214 1.5,1.42779 1.1072,-0.42487 1.5,0.13804 1.5,2.14962 0,1.49887 0.4114,4.15967 0.9142,5.9129 0.7738,2.69796 0.5435,3.61875 -1.4987,5.9934 -2.9924,3.47939 -2.9895,3.66053 0.085,5.30571 1.375,0.73588 2.5,1.73848 2.5,2.228 0,0.48952 -0.45,0.61192 -1,0.272 -1.5009,-0.92758 -1.203,0.43986 0.4575,2.10037 0.8016,0.80163 1.2892,2.00699 1.0835,2.67857 -0.2057,0.67158 -0.6684,2.57106 -1.0283,4.22106 -0.5276,2.41941 -0.4083,2.75809 0.6165,1.75 0.6989,-0.6875 1.6308,-1.25 2.0708,-1.25 1.0522,0 0.5736,2.27393 -0.7,3.32613 -0.5969,0.49308 -0.3953,0.66125 0.5,0.41713 0.825,-0.22494 1.6561,-1.2717 1.847,-2.32613 0.6314,-3.48779 2.153,-3.96564 2.153,-0.67615 0,1.72754 -0.45,3.4191 -1,3.75902 -0.55,0.33992 -0.9478,1.37898 -0.884,2.30902 0.1045,1.5245 0.161,1.51869 0.5733,-0.059 0.2515,-0.9625 0.8303,-1.75 1.2862,-1.75 0.9303,0 3.4299,5.82515 3.3208,7.73924 -0.039,0.68158 0.4051,0.94526 0.9865,0.58595 0.6652,-0.4111 0.8129,-0.0172 0.3985,1.0627 -0.3621,0.94379 -0.2628,1.47148 0.2207,1.17263 0.4836,-0.29884 1.6138,0.57779 2.5116,1.94807 0.8979,1.37027 1.3813,2.49141 1.0742,2.49141 -0.307,0 -0.047,0.9543 0.5767,2.12068 0.8702,1.62598 0.856,1.94826 -0.061,1.38157 -0.7985,-0.49352 -1.0763,-0.11827 -0.836,1.12932 0.1979,1.02764 0.9325,1.86843 1.6326,1.86843 0.7,0 1.601,0.53111 2.0022,1.18025 0.6486,1.04944 0.6184,-5.87102 -0.08,-18.43025 -0.1301,-2.3375 0.1043,-4.25 0.5207,-4.25 0.4165,0 0.7572,0.71371 0.7572,1.58603 0,0.95616 1.9975,2.42993 5.0297,3.71099 l 5.0296,2.12496 -0.62,4.13451 c -0.5202,3.4687 -0.055,5.2464 2.8866,11.03901 1.9286,3.79748 5.0706,8.54145 6.9822,10.54216 l 3.4756,3.63766 0.1027,-6.74647 c 0.1738,-11.41782 4.7021,-20.80416 14.6047,-30.27286 3.3049,-3.16013 6.3786,-5.74801 6.8304,-5.75084 0.4517,-0.003 1.4812,-0.66492 2.2876,-1.47131 1.2882,-1.28821 1.2188,-1.95091 -0.5715,-5.46016 -2.1048,-4.12586 -3.0024,-13.33459 -0.9575,-9.82368 1.0398,1.78525 3.9199,2.44359 3.9199,0.89602 0,-0.46968 -1.125,-2.06787 -2.5,-3.55152 -1.375,-1.48365 -2.5316,-3.23686 -2.5703,-3.89602 -0.039,-0.65918 -0.4571,-0.2985 -0.9298,0.8015 -0.8883,2.06726 -1.0381,1.77295 -1.4,-2.75 -0.055,-0.6875 -0.4482,-1.50816 -0.8737,-1.82368 -1.4387,-1.0667 -2.6413,-11.73593 -1.6948,-15.03599 0.9695,-3.38059 5.0069,-9.87202 6.1471,-9.8835 0.3732,-0.004 1.2732,-0.58675 2,-1.29553 1.7601,-1.7165 11.2202,-5.71275 13.5068,-5.70572 2.9559,0.009 9.148,1.97185 10.5309,3.33806 0.706,0.69755 2.0525,1.55927 2.992,1.91494 0.9396,0.35567 3.2893,3.03049 5.2216,5.94405 2.6378,3.97739 3.7645,7.0416 4.5218,12.29737 1.6398,11.37983 1.1697,11.57331 -2.3152,0.95297 -1.8785,-5.72496 -4.3377,-11.13524 -5.7166,-12.57666 l -2.4199,-2.52963 -9.4115,4.96635 c -7.9553,4.19796 -9.7056,4.78266 -11.3125,3.77912 -3.8745,-2.41962 -8.3076,1.55791 -5.363,4.81174 1.0184,1.12528 1.2913,2.88163 0.9006,5.79498 -0.3084,2.29918 -0.2924,5.24953 0.036,6.55632 0.798,3.17939 4.2844,7.08928 5.5977,6.27761 0.5792,-0.35796 1.0531,0.0284 1.0531,0.85849 0,0.83013 0.643,1.86919 1.4289,2.30902 1.3832,0.774 1.5711,1.16879 1.5711,3.29969 0,0.55 0.6375,1 1.4167,1 0.7791,0 1.606,0.5625 1.8374,1.25 0.3334,0.99077 0.7453,0.98211 1.986,-0.0417 0.9414,-0.77678 1.7039,-0.89409 1.9127,-0.29427 0.2261,0.64965 1.742,0.67252 4.3472,0.0656 5.2327,-1.21904 8.5,-1.21852 8.5,10e-4 0,1.32413 -4.5837,2.46013 -9.643,2.38987 -4.0333,-0.056 -4.0959,-0.007 -2.3634,1.85266 1.4413,1.54709 2.8942,1.84997 7.643,1.59336 5.3214,-0.28755 6.0213,-0.59414 7.5715,-3.31684 0.9394,-1.65 1.7269,-4.06064 1.75,-5.35699 0.053,-3.00781 0.7075,-2.76678 13.7809,5.07908 11.6023,6.96301 11.6798,7.36641 2.2605,11.77815 -2.7497,1.2879 -4.9995,2.65623 -4.9995,3.04074 0,0.3845 1.9817,1.25392 4.4037,1.93204 4.9384,1.38267 8.9296,5.09199 13.479,12.52698 9.9776,16.30635 12.1173,20.12685 12.1173,21.63619 0,2.78143 10.5226,23.86413 11.9109,23.86413 0.4798,0 1.1725,1.2375 1.5394,2.75 0.9733,4.01232 4.6201,11.32035 6.6738,13.37413 0.9781,0.97806 2.7557,4.05025 3.9503,6.82709 1.1945,2.77683 2.7757,5.04878 3.5136,5.04878 1.7332,0 3.412,3.16589 3.412,6.43426 l 0,2.56574 -11.8914,0 -11.8914,0 -1.4821,-3.75 c -0.8152,-2.0625 -2.2527,-6.45 -3.1946,-9.75 -1.6854,-5.90514 -13.447,-29.9268 -14.2565,-29.11729 -0.2282,0.2282 0.9607,3.14011 2.6421,6.47091 2.9078,5.76022 6.4304,14.45609 9.7214,23.99798 0.8254,2.39338 2.3674,5.89456 3.4267,7.78041 1.0592,1.88585 1.9258,3.64014 1.9258,3.89841 0,0.25827 -122.175,0.46958 -271.5,0.46958 -171.04935,0 -271.499992,-0.35193 -271.499992,-0.95121 l -10e-4,0 z M 489.28573,644.64789 c 0,-0.55 -0.45,-1 -1,-1 -0.55,0 -1,0.45 -1,1 0,0.55 0.45,1 1,1 0.55,0 1,-0.45 1,-1 z m 0,-3.5 c 0.6847,-0.825 0.9327,-1.5 0.551,-1.5 -0.3816,0 -1.3688,0.675 -2.1938,1.5 -0.825,0.825 -1.073,1.5 -0.5511,1.5 0.522,0 1.5092,-0.675 2.1939,-1.5 z m -0.7544,-2.8482 c 0.7119,0.43997 0.8594,0.0643 0.4222,-1.07518 -0.3697,-0.9633 -0.9576,-3.62462 -1.3065,-5.91404 -0.3489,-2.28942 -1.1354,-4.81146 -1.7478,-5.60454 -0.8296,-1.07434 -0.8174,-1.26448 0.048,-0.74582 0.6387,0.38288 0.294,-1.09898 -0.7661,-3.293 -1.06,-2.19403 -3.0764,-7.25841 -4.4809,-11.25418 -2.9704,-8.4508 -6.5567,-15.76504 -7.73,-15.76504 -0.4505,0 -0.6016,0.7875 -0.3357,1.75 0.2658,0.9625 0.7786,3.92021 1.1395,6.57269 0.5429,3.98951 3.0803,12.04323 6.1995,19.67731 0.3371,0.825 0.7581,2.22615 0.9356,3.11368 0.1774,0.88752 0.8575,2.91252 1.5112,4.5 0.6537,1.58747 1.1048,3.25727 1.0023,3.71065 -0.1024,0.45338 0.3231,0.50953 0.9457,0.12477 0.7743,-0.47859 0.9188,-0.0283 0.4574,1.42567 -0.4002,1.26089 -0.2405,2.12523 0.3928,2.12523 0.5871,0 1.1196,0.7875 1.1834,1.75 0.1096,1.65345 0.1414,1.65277 0.5757,-0.0122 0.2528,-0.96924 0.9521,-1.45792 1.5539,-1.08596 l -2e-4,-4e-5 z m -2.1666,-2.06847 c -0.043,-1.05416 0.1929,-1.64479 0.5252,-1.3125 0.3323,0.33229 0.3678,1.19479 0.079,1.91667 -0.3192,0.79773 -0.5562,0.56078 -0.6042,-0.60417 z m -3.472,-7.16512 c -0.9389,-2.44686 -0.735,-2.68913 0.893,-1.06107 1.7001,1.70004 1.9166,2.64286 0.607,2.64286 -0.4912,0 -1.1662,-0.7118 -1.5,-1.58179 z m -305.03239,-3.53892 c 0.90752,-1.4684 -2.24489,-0.98149 -3.50931,0.54204 -0.96852,1.167 -0.80871,1.32433 0.89314,0.87929 1.14001,-0.29812 2.31728,-0.93772 2.61617,-1.42133 z m 204.61289,-44.5624 c -0.7219,-0.28887 -1.5844,-0.25335 -1.9167,0.0789 -0.3322,0.33229 0.2584,0.56864 1.3125,0.52522 1.165,-0.048 1.4019,-0.28494 0.6042,-0.60416 l 0,4e-5 z m 56.594,-6.32117 c 0.19,-3.37136 -0.108,-4.99572 -0.9166,-4.99572 -0.659,0 -0.9162,0.28205 -0.5714,0.62678 0.3447,0.34474 -0.044,1.924 -0.8639,3.50948 -1.2164,2.35211 -1.255,3.15002 -0.2102,4.33517 1.9858,2.25236 2.2603,1.87995 2.5621,-3.47571 z m -216.86044,-5.36816 c -0.0496,-0.70849 -0.26641,-0.66298 -0.58333,0.12244 -0.27741,0.6875 -1.16844,1.25 -1.98007,1.25 -0.81163,0 -1.18406,0.47185 -0.82764,1.04856 0.78094,1.26358 3.51248,-0.68657 3.39104,-2.421 z m 220.57894,2.37244 c -0.3399,-0.55 -0.8165,-1 -1.059,-1 -0.2425,0 -0.441,0.45 -0.441,1 0,0.55 0.4766,1 1.059,1 0.5825,0 0.7809,-0.45 0.441,-1 z m -190.81777,-1.54525 c 0.47431,-1.42486 -3.4062,-5.45475 -5.25256,-5.45475 -2.66799,0 -2.93288,3.1741 -0.43377,5.19776 2.41346,1.9543 5.08118,2.07487 5.68633,0.25699 z m 170.50527,0.86214 c -0.7219,-0.28887 -1.5844,-0.25335 -1.9167,0.0789 -0.3322,0.33229 0.2584,0.56864 1.3125,0.52522 1.165,-0.048 1.4019,-0.28494 0.6042,-0.60416 l 0,4e-5 z m 112.1951,-7.98013 c -0.9775,-1.56022 -1.801,-2.89336 -1.8299,-2.96253 -0.029,-0.0692 -1.1777,-0.45721 -2.5527,-0.86229 -2.2446,-0.66129 -2.098,-0.31834 1.435,3.35741 4.39,4.56722 5.6403,4.7655 2.9476,0.46741 z m -112.1951,-5.01987 c -0.7219,-0.28887 -1.5844,-0.25335 -1.9167,0.0789 -0.3322,0.33229 0.2584,0.56864 1.3125,0.52522 1.165,-0.048 1.4019,-0.28494 0.6042,-0.60416 l 0,4e-5 z m 106.4167,-3.04606 c -0.3323,-0.33229 -0.5687,0.25834 -0.5252,1.3125 0.048,1.16495 0.2849,1.4019 0.6041,0.60417 0.2889,-0.72188 0.2534,-1.58438 -0.079,-1.91667 l 1e-4,0 z m 0.3958,-2.37782 c 0,-1.28596 -0.5789,-1.10536 -2.019,0.62988 -1.0568,1.27335 -0.9949,1.41968 0.3776,0.89301 0.9028,-0.34643 1.6414,-1.03173 1.6414,-1.52289 z m -117,-0.39301 c -1.3598,-1.63848 -2.4599,-2.05324 -1.5528,-0.58541 0.3109,0.50302 0,1.1425 -0.691,1.42105 -0.6909,0.27856 -0.1886,0.54199 1.1163,0.58541 1.9983,0.0665 2.1761,-0.15756 1.1275,-1.42105 z m 16.8625,-3.75688 c -0.5488,-1.02556 -1.5299,-1.68731 -2.1802,-1.47055 -0.6503,0.21675 -0.9573,0.8066 -0.6823,1.31076 0.275,0.50417 0.871,0.79302 1.3243,0.64189 0.4534,-0.15112 0.5394,0.18638 0.191,0.75 -0.3483,0.56363 -0.3255,1.52282 0.051,2.13154 1.1729,1.89774 2.4036,-1.29513 1.2966,-3.36364 l -4e-4,0 z m -9.5648,1.59021 c -0.2814,-0.73333 -0.6404,-1.33333 -0.7977,-1.33333 -0.1573,0 -0.5162,0.6 -0.7977,1.33333 -0.2814,0.73334 0.077,1.33334 0.7977,1.33334 0.7201,0 1.0791,-0.6 0.7977,-1.33334 z m -12.2977,-2.33333 c -1.1749,-1.65 -2.3612,-3 -2.6362,-3 -0.275,0 0.4613,1.35 1.6362,3 1.1749,1.65 2.3612,3 2.6362,3 0.275,0 -0.4613,-1.35 -1.6362,-3 z m 16.0364,-2.4562 c -0.6647,-0.8009 -0.8788,-2.0384 -0.4758,-2.75 0.5767,-1.01824 0.455,-1.0366 -0.5715,-0.0862 -1.061,0.98234 -1.0655,1.49534 -0.024,2.75 0.704,0.84831 1.5051,1.54238 1.7801,1.54238 0.275,0 -0.044,-0.65529 -0.7086,-1.4562 l -2e-4,2e-5 z m -16.0364,-4.92136 c 0,-0.20765 -0.7875,-0.99515 -1.75,-1.75 -1.586,-1.24387 -1.6214,-1.2085 -0.3775,0.37756 1.3063,1.66575 2.1275,2.19548 2.1275,1.37244 z m -3,-14.24047 c 0,-0.825 -0.45,-1.22189 -1,-0.88197 -0.55,0.33992 -1,1.29303 -1,2.11803 0,0.825 0.45,1.22189 1,0.88197 0.55,-0.33992 1,-1.29303 1,-2.11803 z m 13.5366,1.60413 c 1.9698,-0.74892 2.4901,-1.46762 1.991,-2.75 -1.118,-2.87214 -1.0845,-3.46523 0.2224,-3.94443 0.7198,-0.26392 1.25,0.34055 1.25,1.425 0,1.85496 1.7481,4.28333 3.0834,4.28333 1.3158,0 1.8218,-4.40927 0.6659,-5.80214 -2.3791,-2.86659 -5.4805,-3.20427 -10.211,-1.11176 -3.4476,1.52505 -4.5383,2.54898 -4.5383,4.26069 0,4.20842 2.6606,5.49317 7.5366,3.63931 z m -16.2362,-3.3265 c 0.3345,-0.87178 1.6001,-1.18105 3.6199,-0.88461 2.5357,0.37216 2.9928,0.16214 2.4914,-1.14464 -0.4018,-1.04694 0.6636,-2.84136 3.0806,-5.18854 2.0321,-1.97346 3.5402,-3.66769 3.3512,-3.76496 -0.1889,-0.0973 -1.401,-0.77129 -2.6936,-1.49784 -1.5003,-0.84331 -3.7331,-1.08732 -6.1748,-0.6748 -2.9644,0.50083 -4.2374,0.23564 -5.6596,-1.17902 -2.2933,-2.28128 -6.3105,-2.81066 -8.4582,-1.11464 -0.9303,0.7346 -1.8435,3.33338 -2.1223,6.03945 -0.5013,4.8662 -0.042,5.65656 2.065,3.55 0.9333,-0.93333 1.2034,-0.65556 1.2153,1.25 0.011,1.74363 0.2617,2.06124 0.8699,1.10161 1.0064,-1.5882 4.7235,-1.06013 4.3768,0.62179 -0.1424,0.6909 0.4242,0.90052 1.4108,0.52194 1.3038,-0.50035 1.5301,-0.17908 1.0816,1.53599 -0.6116,2.33882 0.6973,3.04005 1.546,0.82827 z m -12.3004,-1.0461 c 0,-0.77604 -1.3208,-1.58036 -3,-1.82681 -3.3557,-0.49252 -3.5381,-0.3135 -1.75,1.71748 1.6135,1.83259 4.75,1.90479 4.75,0.10933 z m 25,-5.1135 c 0.6847,-0.825 1.0199,-1.5 0.7449,-1.5 -0.275,0 -1.0602,0.675 -1.7449,1.5 -0.6847,0.825 -1.0199,1.5 -0.7449,1.5 0.275,0 1.0602,-0.675 1.7449,-1.5 z m 7.5589,-2.0318 c -2.2233,-1.68158 -4.1805,-1.88943 -5.0189,-0.53297 -0.3179,0.51437 0.8931,1.11735 2.691,1.33996 1.798,0.2226 3.494,0.46244 3.769,0.53297 0.275,0.0705 -0.3735,-0.53246 -1.4411,-1.33996 z m -4.3714,-5.15131 c -0.7219,-0.28887 -1.5844,-0.25335 -1.9167,0.0789 -0.3322,0.33229 0.2584,0.56864 1.3125,0.52522 1.165,-0.048 1.4019,-0.28494 0.6042,-0.60416 l 0,4e-5 z m -22.1875,-9.65776 c 0,-2.02246 0.7505,-2.50883 5.5175,-3.57562 3.0346,-0.67912 6.8482,-0.94247 8.4746,-0.58524 3.343,0.73423 10.2172,-1.36052 9.6954,-2.95444 -0.5,-1.52758 -6.7938,-5.59614 -7.7463,-5.00751 -0.4472,0.2764 -2.6419,0.0916 -4.8771,-0.41059 -2.2353,-0.50223 -4.0641,-0.54086 -4.0641,-0.0859 0,0.45501 -1.2375,0.96968 -2.75,1.14371 -2.1801,0.25085 -2.7006,0.78269 -2.5118,2.56642 0.171,1.61449 -0.2887,2.25 -1.6275,2.25 -2.193,0 -4.5466,2.48572 -3.6805,3.8871 0.3314,0.53609 0.1451,1.25736 -0.4139,1.60282 -0.5589,0.34546 -1.0163,1.07811 -1.0163,1.62811 0,0.55 0.4189,0.74111 0.9309,0.42468 0.512,-0.31644 1.2136,-0.11799 1.559,0.44098 1.1193,1.81105 2.5101,1.07713 2.5101,-1.32456 l 0,4e-5 z m 7.1875,-1.34224 c -0.7219,-0.28887 -1.5844,-0.25335 -1.9167,0.0789 -0.3322,0.33229 0.2584,0.56864 1.3125,0.52522 1.165,-0.048 1.4019,-0.28494 0.6042,-0.60416 l 0,4e-5 z M 211.28574,473.54024 c 0,-1.52587 -0.51953,-3.0954 -1.15451,-3.48784 -0.7153,-0.44208 -0.88306,-0.27432 -0.44098,0.44098 0.39244,0.63498 0.23697,1.15451 -0.34549,1.15451 -0.58246,0 -1.06591,-0.5625 -1.07433,-1.25 -0.0118,-0.96273 -0.19159,-0.97265 -0.78233,-0.0432 -0.42186,0.66375 -2.10247,1.09235 -3.73469,0.95244 -2.27202,-0.19475 -2.92212,-0.7126 -2.77334,-2.20919 0.12381,-1.24539 -0.76583,-2.40794 -2.4514,-3.2034 -2.41877,-1.14148 -2.92585,-0.97709 -5.91116,1.91638 -2.92005,2.83023 -3.09219,3.29165 -1.62756,4.36262 0.90083,0.6587 2.49394,0.97377 3.54025,0.70015 1.70033,-0.44465 6.68989,0.66379 12.21558,2.71371 3.48371,1.29239 4.53996,0.8161 4.53996,-2.04718 l 0,2e-5 z m 12.98469,-15.64235 c -0.028,-1.36867 -1.86631,-3.70172 -2.45386,-3.11417 -0.78775,0.78775 0.46709,3.86417 1.57616,3.86417 0.49115,0 0.88612,-0.3375 0.8777,-0.75 z m 245.0153,107.75 c 1.9655,-1.2702 5,-1.2702 5,0 0,0.55 -1.4625,0.99311 -3.25,0.98469 -2.4662,-0.0116 -2.8882,-0.24909 -1.75,-0.98469 z m -5,-0.96862 c 0,-0.53273 0.675,-0.70959 1.5,-0.39301 0.825,0.31659 1.5,0.75246 1.5,0.96862 0,0.21615 -0.675,0.39301 -1.5,0.39301 -0.825,0 -1.5,-0.43588 -1.5,-0.96862 z m -115,-13.56276 c 0,-1.61739 1.5626,-1.98533 2.4353,-0.5734 0.3043,0.49236 -0.1192,1.15324 -0.941,1.46861 -0.9077,0.3483 -1.4943,-0.003 -1.4943,-0.89521 z m -3,-0.96862 c 0,-0.825 0.4359,-1.5 0.9686,-1.5 0.5328,0 0.7096,0.675 0.393,1.5 -0.3165,0.825 -0.7524,1.5 -0.9686,1.5 -0.2161,0 -0.393,-0.675 -0.393,-1.5 z m -308.999992,-8.5 c 0,-0.55 0.45,-1 1,-1 0.55,0 1,0.45 1,1 0,0.55 -0.45,1 -1,1 -0.55,0 -1,-0.45 -1,-1 z m 220.498142,-3.00302 c -0.35539,-0.57502 0.24849,-0.87049 1.41521,-0.69243 2.87118,0.43817 3.84435,1.69545 1.31233,1.69545 -1.1592,0 -2.3866,-0.45136 -2.72754,-1.00302 z m 256.50185,0.14375 c 0,-0.9477 1.5201,-1.37954 9,-2.55681 4.4452,-0.69963 7.63,0.9412 3.3832,1.74305 -7.459,1.40831 -12.3832,1.73191 -12.3832,0.81376 z m 7.4248,-5.01898 c 0.2985,-0.48303 -0.7999,-1.14678 -2.441,-1.475 -4.661,-0.93219 -3.5013,-2.65006 1.7662,-2.61634 3.6401,0.0233 4.3508,0.26314 3.0415,1.02645 -0.9423,0.54938 -1.4549,1.65682 -1.143,2.46959 0.311,0.81045 0.041,1.47355 -0.6005,1.47355 -0.6413,0 -0.9218,-0.39521 -0.6232,-0.87825 z m -263.42479,-0.51476 c 0,-0.21616 0.675,-0.65203 1.5,-0.96862 0.825,-0.31658 1.5,-0.13972 1.5,0.39301 0,0.53274 -0.675,0.96862 -1.5,0.96862 -0.825,0 -1.5,-0.17686 -1.5,-0.39301 z m 248.01139,-8.5576 c -6.1143,-0.96287 -4.9447,-5.60291 1.7939,-7.11697 5.4681,-1.22861 9.7036,0.24821 8.2896,2.89037 -2.037,3.80599 -4.9639,5.03284 -10.0835,4.2266 z m 17.2272,-2.71548 c -0.6938,-0.27951 -1.7419,-1.40588 -2.3291,-2.50302 -0.8486,-1.58555 -0.6923,-2.2792 0.7615,-3.38104 2.4845,-1.88301 8.7307,-1.9389 8.0141,-0.0717 -0.2908,0.75798 -0.024,1.88298 0.5931,2.5 0.8291,0.82915 0.6629,1.12186 -0.6372,1.12186 -0.9675,0 -1.4841,0.44485 -1.1481,0.98855 0.3629,0.58718 -0.086,0.72119 -1.105,0.33006 -1.1642,-0.44676 -1.4835,-0.28231 -0.9929,0.51145 0.738,1.19409 -0.8242,1.44344 -3.1564,0.50384 z m -199.2386,-14.33391 c 0,-0.55 0.45,-1 1,-1 0.55,0 1,0.45 1,1 0,0.55 -0.45,1 -1,1 -0.55,0 -1,-0.45 -1,-1 z m 7.6123,-3.81836 c -0.6999,-1.13239 6.1061,-3.47375 7.5334,-2.59162 0.8062,0.49828 0.5983,1.124 -0.6853,2.06262 -2.0409,1.49234 -6.0608,1.80287 -6.8481,0.529 z m -5.7444,-3.93469 c 1.8709,-3.49595 16.8763,-5.50618 17.9136,-2.39984 0.3591,1.07525 0.022,1.11815 -1.67,0.21258 -2.3856,-1.27676 -9.0244,0.0655 -12.5549,2.53834 -2.8958,2.02831 -4.862,1.84117 -3.6887,-0.35108 z m 7.8179,-8.62334 c -0.3455,-0.90048 -1.4742,-1.19555 -3.2643,-0.85336 l -2.7361,0.52304 1.9073,-2.61522 c 2.0206,-2.77057 6.689,-3.64929 8.0123,-1.50813 0.4832,0.78178 0.1822,0.96239 -0.9071,0.54438 -1.3504,-0.51821 -1.5287,-0.11841 -1.039,2.33006 0.5964,2.98196 -0.9575,4.2257 -1.9731,1.57923 z m 13.4504,-1.29182 c -0.075,-1.19252 -0.3952,-2.99252 -0.7117,-4 -0.5448,-1.73409 -0.5146,-1.73692 0.5658,-0.053 0.6277,0.97831 0.948,2.77831 0.7117,4 -0.4292,2.21904 -0.4298,2.21909 -0.5658,0.053 z m -33.5686,-4.22241 c -0.7312,-1.18315 3.6848,-4.00986 7.4367,-4.76024 1.9877,-0.39754 2.9957,-0.19792 2.9957,0.59325 0,0.73731 -0.7633,0.95012 -2,0.55761 -1.5357,-0.48742 -2,-0.1797 -2,1.32562 0,2.68143 -5.0734,4.48269 -6.4324,2.28376 z M 35.285738,484.64789 c -1.33333,-0.86167 -1.33333,-0.96327 0,-0.9144 0.825,0.0302 2.4,0.44171 3.5,0.9144 2,0.85943 2,0.85943 0,0.9144 -1.1,0.0302 -2.675,-0.38124 -3.5,-0.9144 z m 161.500002,-0.17978 c -1.1,-0.61335 -2.12309,-1.20941 -2.27354,-1.32457 -0.15044,-0.11517 0.0215,-0.97816 0.38203,-1.91777 0.4824,-1.25713 1.61119,-1.63472 4.27353,-1.42954 3.7679,0.29038 5.07676,1.28791 5.10267,3.88895 0.0188,1.88791 -4.63072,2.37427 -7.48469,0.78293 z m 113.49999,-2.38596 c 0,-4.1305 1.76,-6.29253 6.0662,-7.45208 4.7518,-1.27953 7.5268,-0.61127 9.0159,2.17119 1.3244,2.47465 0.4841,3.56141 -1.4881,1.9246 -2.3158,-1.92192 -9.0039,-0.96489 -9.4435,1.35131 -0.3596,1.89478 -2.455,4.57072 -3.5791,4.57072 -0.3142,0 -0.5714,-1.15458 -0.5714,-2.56574 z m 23.4523,-3.08028 c -3.1363,-3.38408 -3.1191,-6.09302 0.048,-7.53593 1.8883,-0.8604 3.1409,-0.84705 5.1197,0.0545 2.2681,1.03342 2.538,0.98089 2.0114,-0.39142 -0.3345,-0.87177 -0.1988,-1.33201 0.3016,-1.02276 1.3583,0.83949 4.3503,9.19406 3.8384,10.71816 -0.2444,0.72789 -0.9884,-0.32042 -1.6533,-2.32958 -1.2534,-3.78743 -5.3574,-6.00738 -7.3753,-3.98947 -1.3299,1.32981 -0.028,3.14252 2.2574,3.14252 2.7331,0 3.3743,1.72934 1.0938,2.94983 -2.7002,1.44508 -2.867,1.39789 -5.6415,-1.59585 l -2e-4,0 z M 190.33556,453.20792 c -0.65728,-0.79198 -2.17488,-1.60585 -3.37244,-1.80861 -2.38925,-0.40452 -2.5609,-0.28925 5.32262,-3.57431 2.37824,-0.99101 2.32023,-1.04505 -1.19098,-1.10943 -2.03004,-0.0372 -3.9691,0.38232 -4.30902,0.93232 -1.03988,1.68257 -2.5,1.11352 -2.5,-0.97432 0,-2.68382 5.40566,-5.38381 9.46128,-4.72568 8.20527,1.33154 12.26773,4.74959 9.77341,8.2231 -2.83699,3.95068 -10.88757,5.80501 -13.18487,3.03693 z m 189.28597,-25.12725 c -0.3307,-0.86197 -0.095,-1.99072 0.5231,-2.50833 0.6184,-0.51761 0.919,-0.6532 0.668,-0.3013 -0.2511,0.3519 -0.01,1.48065 0.5435,2.50833 0.686,1.28182 0.6651,1.86852 -0.067,1.86852 -0.5866,0 -1.3372,-0.70525 -1.668,-1.56722 l 4e-4,0 z M 195.03574,368.56779 c -2.47356,-1.44071 -2.17342,-3.11941 0.48978,-2.73945 1.23189,0.17575 2.38988,1.10705 2.57333,2.06955 0.37576,1.97153 -0.49964,2.16298 -3.06311,0.6699 z"
       id="path2830"
       inkscape:export-filename="/home/diego/Documentos/fgroup/web/public/images/fiura_stencil_base.png"
       inkscape:export-xdpi="89.999992"
       inkscape:export-ydpi="89.999992"
       sodipodi:nodetypes="cccsssssscccccsssssssssssssssssssssssssssssssssscccssssssssssssssssssssscccsssssssssssssssssssssssssscccsssssssssssscccsssscccsssssssssssssscccsssssssssssssssssssssssssscccsssssssssssssssssssssssssssssssssssssssssssssssssssssssssssssssssssssssssssscccscccsssssssssssssssssssscccsssssssssssssssssssssssssssssscccccssssssscccsssccsssccsssssssssssssssssscccssccssccssccsscccssssccsssccsssccssccsscccsssccsscccsscccssccsssccssssscccsssccsssccsssscccssccsssccsssssssccsssssssssssssssccssccsssccsssccsscccsssssssssssssscccsscccsssssssssssscccssccssccsssccssccsssccsssccssccssccsssssccsssccssccssssssssccsssccssccssscccccsssccsssccssssccsssccssssccsssssccssssssssscccsssssssccsssscccssc" />
    <rect
       style="fill:#745050;fill-opacity:1;stroke:none"
       id="rect2814"
       width="0"
       height="0"
       x="29.7995"
       y="436.16913" />
    <rect
       style="fill:#000000;fill-opacity:1;stroke:none"
       id="rect3603"
       width="1200"
       height="81.428574"
       x="4.2857141"
       y="636.64789"
       ry="14.47619"
       rx="13.317757"
       inkscape:export-filename="/home/diego/Documentos/fgroup/web/public/images/fiura_stencil_base.png"
       inkscape:export-xdpi="89.999992"
       inkscape:export-ydpi="89.999992" />
    <path
       style="fill:#000000;stroke:#000000;stroke-width:1px;stroke-linecap:butt;stroke-linejoin:miter;stroke-opacity:1"
       d="m 17.232144,637.09433 c 10.694601,-0.85888 23.739963,-21.25442 42.05357,-58.30358 0,0 13.571429,77.14286 10.714286,77.14286 -2.857143,0 -50.624999,-19.55356 -52.767856,-18.83928 z"
       id="path3605"
       sodipodi:nodetypes="ccsc"
       inkscape:export-filename="/home/diego/Documentos/fgroup/web/public/images/fiura_stencil_base.png"
       inkscape:export-xdpi="89.999992"
       inkscape:export-ydpi="89.999992" />
    <path
       style="fill:#000000;stroke:#000000;stroke-width:1px;stroke-linecap:butt;stroke-linejoin:miter;stroke-opacity:1"
       d="m 163.57143,616.6479 c -0.29029,1.5257 0.71428,2.79262 0.71428,4.28571 0,2.38095 0,4.76191 0,7.14286 0,0.47619 0,0.95238 0,1.42857 0,0.23809 -0.10648,0.50133 0,0.71429 0.15059,0.30116 0.56371,0.41311 0.71429,0.71428 0.1416,0.28321 -0.14603,1.99683 0,2.14286 0.16836,0.16836 0.54593,-0.16836 0.71429,0 0.16835,0.16836 -0.16836,0.54593 0,0.71428 0.16835,0.16836 0.47619,0 0.71428,0 0.2381,0 0.47619,0 0.71429,0 1.19047,0 2.38095,0 3.57143,0 0.23809,0 0.47619,0 0.71428,0 0.2381,0 0.50133,-0.10648 0.71429,0 0.30117,0.15059 0.41311,0.5637 0.71428,0.71429 0.67344,0.33672 1.41242,0.53167 2.14286,0.71429 0.23099,0.0577 0.54593,-0.16836 0.71429,0 0.16835,0.16835 -0.16836,0.54592 0,0.71428 0.16835,0.16836 0.47619,0 0.71428,0 0.2381,0 0.47619,0 0.71429,0 0.85401,0 3.81952,-0.15539 4.28571,0 2.4623,0.82077 0.52912,0.71429 2.14286,0.71429 0.23809,0 0.50133,0.10648 0.71428,0 1.44305,-0.72152 0.23979,-1.43365 0.71429,-2.85715 0.0753,-0.22587 0.54593,0.16836 0.71429,0 0.16835,-0.16835 -0.10648,-0.50132 0,-0.71428 0.15058,-0.30117 0.5637,-0.41312 0.71428,-0.71429 0.10648,-0.21296 -0.10648,-0.50132 0,-0.71428 0.15059,-0.30117 0.5637,-0.41312 0.71429,-0.71429 0.0923,-0.18468 0,-3.77943 0,-4.28571 0,-0.32169 0.10869,-1.92548 0,-2.14286 -0.30117,-0.60234 -1.1274,-0.82623 -1.42857,-1.42857 -0.10648,-0.21296 0.16835,-0.54593 0,-0.71429 -0.16836,-0.16836 -0.50133,0.10648 -0.71429,0 -0.30117,-0.15058 -0.41312,-0.5637 -0.71429,-0.71428 -0.21295,-0.10648 -0.50132,0.10648 -0.71428,0 -0.30117,-0.15059 -0.41312,-0.5637 -0.71429,-0.71429 -0.21296,-0.10648 -0.54592,0.16836 -0.71428,0 -0.16836,-0.16836 0.16836,-0.54593 0,-0.71428 -0.37646,-0.37647 -0.98559,-0.41897 -1.42857,-0.71429 -0.28017,-0.18678 -0.47619,-0.47619 -0.71429,-0.71429 -0.2381,-0.23809 -0.5637,-0.41311 -0.71429,-0.71428 -0.10648,-0.21296 0.16836,-0.54593 0,-0.71429 -0.16835,-0.16836 -0.54592,0.16836 -0.71428,0 -0.16836,-0.16836 0.16836,-0.54592 0,-0.71428 -0.19545,-0.19545 -2.46965,0.19374 -2.85714,0 -0.30117,-0.15059 -0.41312,-0.5637 -0.71429,-0.71429 -0.21738,-0.10869 -1.82117,0 -2.14286,0 -1.66666,0 -3.33333,0 -5,0"
       id="path3607"
       inkscape:export-filename="/home/diego/Documentos/fgroup/web/public/images/fiura_stencil_base.png"
       inkscape:export-xdpi="89.999992"
       inkscape:export-ydpi="89.999992" />
    <path
       style="fill:#000000;stroke:#000000;stroke-width:1px;stroke-linecap:butt;stroke-linejoin:miter;stroke-opacity:1"
       d="m 202.85714,565.21933 c -0.95238,-0.4762 -3.33333,-2.38096 -2.85714,-1.42858 0.6818,1.36361 2.57926,1.69962 3.57143,2.85715 0.48999,0.57166 0.43466,1.44378 0.71428,2.14285 0.19773,0.49432 0.41897,0.98559 0.71429,1.42858 0.18678,0.28016 0.63262,0.38762 0.71429,0.71428 0.33892,1.35571 -0.66485,2.16758 0.71428,2.85714 0.42592,0.21296 1.00266,-0.21296 1.42857,0 0.30117,0.15059 0.41312,0.5637 0.71429,0.71429 0.21296,0.10648 0.50133,-0.10648 0.71428,0 0.30117,0.15058 0.41312,0.5637 0.71429,0.71429 0.21296,0.10647 0.50133,-0.10648 0.71429,0 0.76783,0.38391 1.37502,1.04465 2.14285,1.42857 0.21296,0.10648 0.47619,0 0.71429,0 0.47619,0.23809 0.98559,0.41896 1.42857,0.71428 0.28017,0.18678 0.41312,0.5637 0.71429,0.71429 0.42591,0.21296 0.96659,-0.1155 1.42857,0 0.73044,0.18261 1.41241,0.53167 2.14285,0.71428 0.23099,0.0577 0.51618,-0.13207 0.71429,0 0.56033,0.37356 0.85111,1.0821 1.42857,1.42858 0.64563,0.38737 1.46942,0.37756 2.14286,0.71428 0.30117,0.15059 0.43412,0.52751 0.71428,0.71429 0.47619,0.23809 0.95239,0.47619 1.42858,0.71428 0.23809,0 0.50132,-0.10648 0.71428,0 0.30117,0.15059 0.41312,0.5637 0.71429,0.71429 0.21296,0.10648 0.50132,-0.10648 0.71428,0 0.30117,0.15058 0.41312,0.5637 0.71429,0.71428 0.21296,0.10648 0.47619,0 0.71428,0 0.2381,0 0.47619,0 0.71429,0 1.42857,0 2.85714,0 4.28571,0 0.16974,0 2.69705,-0.08 2.85715,0 0.30117,0.15059 0.41311,0.5637 0.71428,0.71429 0.21738,0.10869 1.82118,0 2.14286,0 0.2381,0 0.54593,0.16836 0.71429,0 0.48523,-0.48523 -0.73035,-1.42054 0.71428,-2.14286 0.42592,-0.21296 1.09186,0.33672 1.42857,0 0.16836,-0.16836 -0.16836,-0.54592 0,-0.71428 0.35715,-0.35715 1.78572,0.35714 2.14286,0 0.16836,-0.16836 -0.16836,-0.54593 0,-0.71429 0.2393,-0.2393 1.18927,0.2393 1.42857,0 0.16836,-0.16836 -0.16836,-0.54593 0,-0.71428 0.16836,-0.16836 0.54593,0.16835 0.71429,0 0.16836,-0.16836 -0.16836,-0.54593 0,-0.71429 0.16836,-0.16836 0.54592,0.16836 0.71428,0 0.16836,-0.16836 -0.16836,-0.54593 0,-0.71429 0.16836,-0.16835 0.54593,0.16836 0.71429,0 0.16836,-0.16835 -0.16836,-0.54592 0,-0.71428 0.16836,-0.16836 0.54593,0.16836 0.71428,0 0.16836,-0.16836 -0.16835,-0.54593 0,-0.71429 0.33672,-0.33672 1.09186,0.33672 1.42858,0 0.16835,-0.16836 -0.16836,-0.54592 0,-0.71428 0.16835,-0.16836 0.50132,0.10648 0.71428,0 2.97269,-1.48635 -0.7636,0.0493 0.71429,-1.42857 0.16836,-0.16836 0.54592,0.16835 0.71428,0 0.16836,-0.16836 -0.10648,-0.50133 0,-0.71429 0.15059,-0.30117 0.5637,-0.41312 0.71429,-0.71429 0.10648,-0.21296 0,-0.47619 0,-0.71428 0,-1.42857 0,-2.85714 0,-4.28572 0,-0.23809 0.16836,-0.54592 0,-0.71428 -0.16836,-0.16836 -0.54593,0.16836 -0.71429,0 -0.33671,-0.33672 0.33672,-1.09186 0,-1.42857 -0.16836,-0.16836 -0.54592,0.16836 -0.71428,0 -0.33672,-0.33672 0.21296,-1.00266 0,-1.42857 -0.15059,-0.30117 -0.5637,-0.41312 -0.71429,-0.71429 -0.10648,-0.21296 0.16836,-0.54593 0,-0.71429 -0.16836,-0.16835 -0.54593,0.16836 -0.71428,0 -0.16836,-0.16835 0.16835,-0.54592 0,-0.71428 -0.16836,-0.16836 -0.54593,0.16836 -0.71429,0 -0.16836,-0.16836 0.10648,-0.50133 0,-0.71429 -0.15058,-0.30117 -0.47619,-0.47619 -0.71429,-0.71428 -0.23809,-0.2381 -0.47619,-0.47619 -0.71428,-0.71429 -0.37605,-0.37605 -1.76137,-1.95211 -2.14286,-2.14286 -0.21296,-0.10648 -0.50133,0.10648 -0.71428,0 -0.30117,-0.15058 -0.41312,-0.5637 -0.71429,-0.71428 -0.44894,-0.22447 -2.4082,0.22447 -2.85714,0 -0.30117,-0.15059 -0.41312,-0.5637 -0.71429,-0.71429 -0.34419,-0.17209 -4.60904,0.0977 -5,0 -0.32666,-0.0817 -0.41311,-0.5637 -0.71428,-0.71428 -0.26153,-0.13077 -4.71409,0 -5.71429,0 -2.61905,0 -5.2381,0 -7.85714,0 -0.49682,0 -3.31312,-0.12916 -3.57143,0 -0.30117,0.15058 -0.41312,0.5637 -0.71429,0.71428 -0.38749,0.19375 -2.6617,-0.19544 -2.85714,0 -0.16836,0.16836 0.16836,0.54593 0,0.71429 -0.33672,0.33672 -1.09185,-0.33672 -1.42857,0 -0.16836,0.16836 0.16836,0.54593 0,0.71428 -0.35714,0.35715 -1.78572,-0.35714 -2.14286,0 -0.16836,0.16836 0.16836,0.54593 0,0.71429 -0.16836,0.16836 -0.54593,-0.16836 -0.71428,0 -0.16836,0.16836 0.16835,0.54593 0,0.71429 -1.90477,0 0.23809,-0.2381 -0.71429,0.71428 -0.33672,0.33672 -1.09185,-0.33672 -1.42857,0 -0.16836,0.16836 0.16836,0.54593 0,0.71429 -0.33672,0.33671 -1.00266,-0.21296 -1.42857,0 -0.30117,0.15058 -0.41312,0.5637 -0.71429,0.71428 -0.21296,0.10648 -0.50133,-0.10648 -0.71428,0 -1.76529,0.88265 0.24655,0.71429 -1.42858,0.71429"
       id="path3609"
       inkscape:export-filename="/home/diego/Documentos/fgroup/web/public/images/fiura_stencil_base.png"
       inkscape:export-xdpi="89.999992"
       inkscape:export-ydpi="89.999992" />
    <path
       style="fill:#000000;stroke:#000000;stroke-width:1px;stroke-linecap:butt;stroke-linejoin:miter;stroke-opacity:1"
       d="m 475.71429,595.93361 c -0.24986,0.0496 -2.0525,-0.0904 -2.14286,0 -0.16836,0.16836 0.16836,0.54593 0,0.71429 -0.16836,0.16836 -0.47619,0 -0.71429,0 -0.23809,0 -0.47619,0 -0.71428,0 -1.66667,0 -3.33334,0 -5,0 -0.2381,0 -0.54593,-0.16836 -0.71429,0 -0.16836,0.16836 0.10648,0.50132 0,0.71428 -1.48634,2.97269 0.0493,-0.76359 -1.42857,0.71429 -1.47788,1.47788 2.2584,-0.0578 -0.71429,1.42857 -0.98525,0.49263 -0.6389,-0.86504 -1.42857,0.71429 -0.0939,0.18781 0,2.48362 0,2.85714 0,1.42857 0,2.85714 0,4.28571 0,0.47619 -0.11549,0.9666 0,1.42857 0.12913,0.5165 0.54593,0.9235 0.71429,1.42858 0.0753,0.22587 -0.10648,0.50132 0,0.71428 0.15058,0.30117 0.5637,0.41312 0.71428,0.71429 0.10648,0.21296 -0.10647,0.50132 0,0.71428 0.15059,0.30117 0.56371,0.41312 0.71429,0.71429 0.22531,0.45062 -0.22531,3.12081 0,3.57143 1.6345,3.269 -0.29605,-3.03102 1.42857,2.14285 0.0753,0.22588 -0.0577,0.4833 0,0.71429 0.18261,0.73044 0.53168,1.41241 0.71429,2.14286 0.0577,0.23098 -0.0753,0.48841 0,0.71428 1.72462,5.17387 -0.20593,-1.12615 1.42857,2.14286 0.10648,0.21296 -0.10648,0.50133 0,0.71429 0.15058,0.30116 0.5637,0.41311 0.71428,0.71428 0.10648,0.21296 0,0.47619 0,0.71429 0.2381,0.47619 0.41897,0.98559 0.71429,1.42857 0.37355,0.56033 1.1274,0.82623 1.42857,1.42857 0.10648,0.21296 -0.16836,0.54593 0,0.71429 0.16836,0.16835 0.54593,-0.16836 0.71429,0 0.16836,0.16835 -0.10648,0.50132 0,0.71428 0.31655,0.6331 1.70937,1.49263 2.14285,2.14286 0.29533,0.44298 0.33783,1.05211 0.71429,1.42857 0.33672,0.33672 1.00265,-0.21296 1.42857,0 0.12254,0.0613 2.11328,2.05412 2.14286,2.14286 0,4.04762 -0.47619,0.23809 0.71428,1.42857 0.16836,0.16836 -0.16835,0.54593 0,0.71428 0.33672,0.33672 1.09186,-0.33671 1.42858,0 0.16835,0.16836 -0.16836,0.54593 0,0.71429 0.33671,0.33672 1.09185,-0.33672 1.42857,0 0.16836,0.16836 -0.16836,0.54593 0,0.71429 0.16836,0.16835 0.47619,0 0.71428,0 1.19048,0 2.38096,0 3.57143,0 0.2381,0 0.54593,-0.16836 0.71429,0 0.16836,0.16835 -0.16836,0.54592 0,0.71428 0.33671,0.33672 1.00265,-0.21296 1.42857,0 0.30117,0.15059 0.41312,0.5637 0.71428,0.71429 0.21296,0.10648 0.54593,-0.16836 0.71429,0 0.16836,0.16836 -0.16836,0.54592 0,0.71428 0.023,0.023 1.96962,0 2.14286,0 0.23809,0 0.54592,0.16836 0.71428,0 0.16836,-0.16836 -0.16836,-0.54592 0,-0.71428 0.16836,-0.16836 0.54593,0.16836 0.71429,0 0.33672,-0.33672 -0.33672,-1.09186 0,-1.42857 0.16836,-0.16836 0.54593,0.16835 0.71428,0 0.16836,-0.16836 -0.10647,-0.50133 0,-0.71429 0.15059,-0.30117 0.56371,-0.41312 0.71429,-0.71429 0.10648,-0.21296 -0.16836,-0.54592 0,-0.71428 0.16836,-0.16836 0.54593,0.16836 0.71429,0 0.16835,-0.16836 -0.10648,-0.50133 0,-0.71429 0.15058,-0.30117 0.5637,-0.41311 0.71428,-0.71428 0.0923,-0.18468 0,-3.77943 0,-4.28572 0,-1.90476 0,-3.80952 0,-5.71428 0,-0.37352 0.0939,-2.66933 0,-2.85715 -0.15058,-0.30117 -0.5637,-0.41311 -0.71428,-0.71428 -0.10648,-0.21296 0.10648,-0.50133 0,-0.71429 -0.15059,-0.30117 -0.56371,-0.41311 -0.71429,-0.71428 -0.0939,-0.18782 0,-2.48363 0,-2.85715 0,-1.67512 0.16836,0.33672 -0.71429,-1.42857 -0.10647,-0.21296 0.10648,-0.50132 0,-0.71428 -0.15058,-0.30117 -0.5637,-0.41312 -0.71428,-0.71429 -0.21296,-0.42592 0.21296,-1.00265 0,-1.42857 -0.15059,-0.30117 -0.5637,-0.41312 -0.71429,-0.71429 -0.10648,-0.21296 0.16836,-0.54592 0,-0.71428 -0.16836,-0.16836 -0.54592,0.16836 -0.71428,0 -0.16836,-0.16836 0.10648,-0.50133 0,-0.71429 -0.47438,-0.94875 -0.9542,-0.47982 -1.42857,-1.42857 -0.10648,-0.21296 0.16835,-0.54593 0,-0.71428 -0.16836,-0.16836 -0.54593,0.16835 -0.71429,0 -0.16836,-0.16836 0.10648,-0.50133 0,-0.71429 -0.15058,-0.30117 -0.5637,-0.41312 -0.71429,-0.71429 -0.1416,-0.2832 0.14603,-1.99683 0,-2.14285 -0.16835,-0.16836 -0.54592,0.16836 -0.71428,0 -0.33672,-0.33672 0.21296,-1.00266 0,-1.42857 -0.15059,-0.30117 -0.5637,-0.41312 -0.71429,-0.71429 -0.21296,-0.42592 0.33672,-1.09185 0,-1.42857 -0.16836,-0.16836 -0.54592,0.16836 -0.71428,0 -0.16836,-0.16836 0.16836,-0.54593 0,-0.71429 -0.16836,-0.16836 -0.54593,0.16836 -0.71429,0 -0.16836,-0.16836 0.16836,-0.54592 0,-0.71428 -0.16836,-0.16836 -0.54593,0.16836 -0.71428,0 -0.16836,-0.16836 0.10648,-0.50133 0,-0.71429 -0.42858,-0.85714 -1.71429,-1.28571 -2.14286,-2.14286 -0.10648,-0.21296 0.16836,-0.54592 0,-0.71428 -0.16836,-0.16836 -0.54593,0.16836 -0.71429,0 -0.16836,-0.16836 0.16836,-0.54593 0,-0.71429 -0.16836,-0.16836 -0.54592,0.16836 -0.71428,0 -0.16836,-0.16836 0,-0.47619 0,-0.71428 -1.19048,-0.95238 -2.38095,-1.90477 -6.42857,-0.71429 z"
       id="path3611"
       inkscape:export-filename="/home/diego/Documentos/fgroup/web/public/images/fiura_stencil_base.png"
       inkscape:export-xdpi="89.999992"
       inkscape:export-ydpi="89.999992" />
    <path
       style="fill:#000000;stroke:#000000;stroke-width:1px;stroke-linecap:butt;stroke-linejoin:miter;stroke-opacity:1"
       d="m 377.14286,571.6479 c 0.95238,-0.47619 3.61006,-2.1815 2.85714,-1.42857 -0.98169,0.98169 -2.48733,1.27557 -3.57143,2.14285 -0.18592,0.14874 0.10648,0.50133 0,0.71429 -0.15058,0.30117 -0.5637,0.41311 -0.71428,0.71428 -0.10648,0.21296 0.10648,0.50133 0,0.71429 -0.30117,0.60234 -1.12741,0.82623 -1.42858,1.42857 -0.22531,0.45062 0.22531,3.12081 0,3.57143 -0.15058,0.30117 -0.5637,0.41312 -0.71428,0.71429 -0.10869,0.21738 0,1.82117 0,2.14285 0,0.73894 -0.16836,0.98725 0.71428,1.42857 0.21296,0.10648 0.54593,-0.16835 0.71429,0 0.16836,0.16836 -0.10648,0.50133 0,0.71429 0.15058,0.30117 0.47619,0.47619 0.71429,0.71429 0.23809,0.23809 0.41311,0.5637 0.71428,0.71428 0.21296,0.10648 0.50133,-0.10648 0.71429,0 0.30117,0.15059 0.41311,0.5637 0.71428,0.71429 0.21296,0.10648 0.54593,-0.16836 0.71429,0 0.16836,0.16836 -0.16836,0.54592 0,0.71428 0.33672,0.33672 1.09185,-0.33672 1.42857,0 0.16836,0.16836 -0.16836,0.54593 0,0.71429 0.19544,0.19544 2.46965,-0.19375 2.85714,0 0.30117,0.15058 0.41312,0.5637 0.71429,0.71428 0.18468,0.0923 3.77943,0 4.28571,0 0.50629,0 4.10104,0.0923 4.28572,0 2.97268,-1.48634 -0.7636,0.0493 0.71428,-1.42857 0.16836,-0.16836 0.54593,0.16836 0.71429,0 0.16836,-0.16836 -0.16836,-0.54592 0,-0.71428 1.47788,-1.47789 -0.0578,2.2584 1.42857,-0.71429 0.10648,-0.21296 -0.16836,-0.54593 0,-0.71428 0.16836,-0.16836 0.54593,0.16835 0.71429,0 0.33671,-0.33672 -0.21296,-1.00266 0,-1.42858 0.15058,-0.30117 0.5637,-0.41311 0.71428,-0.71428 0.0923,-0.18468 0,-3.77943 0,-4.28572 0,-0.23809 0.16836,-0.54592 0,-0.71428 -0.16836,-0.16836 -0.50133,0.10648 -0.71428,0 -0.94875,-0.47438 -0.47983,-0.9542 -1.42858,-1.42857 -0.57142,-0.28572 -1.57142,0.28571 -2.14285,0 -0.30117,-0.15059 -0.41312,-0.5637 -0.71429,-0.71429 -0.21296,-0.10648 -0.50133,0.10648 -0.71428,0 -0.30117,-0.15058 -0.41312,-0.5637 -0.71429,-0.71428 -0.21296,-0.10648 -0.54593,0.16835 -0.71429,0 -0.16835,-0.16836 0.16836,-0.54593 0,-0.71429 -0.33671,-0.33672 -1.00265,0.21296 -1.42857,0 -0.30117,-0.15059 -0.41311,-0.5637 -0.71428,-0.71429 -0.42592,-0.21296 -1.09186,0.33672 -1.42857,0 -0.16836,-0.16835 0.16835,-0.54592 0,-0.71428 -0.16836,-0.16836 -0.54593,0.16836 -0.71429,0 -0.16836,-0.16836 0.16836,-0.54593 0,-0.71429 -0.16836,-0.16836 -0.54593,0.16836 -0.71429,0 -0.16835,-0.16836 0.16836,-0.54592 0,-0.71428 -0.16835,-0.16836 -0.54592,0.16836 -0.71428,0 -0.16836,-0.16836 0,-0.47619 0,-0.71429 -1.19048,-0.23809 -2.38095,-0.47619 -6.42857,0.71429 z"
       id="path3613"
       inkscape:export-filename="/home/diego/Documentos/fgroup/web/public/images/fiura_stencil_base.png"
       inkscape:export-xdpi="89.999992"
       inkscape:export-ydpi="89.999992" />
    <rect
       style="fill:#000000;fill-opacity:1;stroke:none"
       id="rect3615"
       width="222.85715"
       height="166.42857"
       x="981.42859"
       y="517.36212"
       rx="13.317757"
       ry="14.47619"
       inkscape:export-filename="/home/diego/Documentos/fgroup/web/public/images/fiura_stencil_base.png"
       inkscape:export-xdpi="89.999992"
       inkscape:export-ydpi="89.999992" />
    <path
       style="fill:#000000;stroke:#000000;stroke-width:1px;stroke-linecap:butt;stroke-linejoin:miter;stroke-opacity:1"
       d="m 982.5,534.1479 c -1.60466,75.10156 -22.6959,105.817 -58.57143,102.85714 L 1039.6428,690.57647 982.5,534.1479 z"
       id="path3617"
       sodipodi:nodetypes="cccc"
       inkscape:export-filename="/home/diego/Documentos/fgroup/web/public/images/fiura_stencil_base.png"
       inkscape:export-xdpi="89.999992"
       inkscape:export-ydpi="89.999992" />
    <rect
       inkscape:export-ydpi="90"
       inkscape:export-xdpi="90"
       inkscape:export-filename="/home/diego/Documentos/fgroup/web/public/images/fiura_footer.png"
       rx="13.317757"
       ry="14.47619"
       y="762.36218"
       x="2.8571427"
       height="81.428574"
       width="1200"
       id="rect2833"
       style="fill:#000000;fill-opacity:1;stroke:none" />
  </g>
</svg>
